<?xml version="1.0" standalone="no"?>
<!DOCTYPE svg PUBLIC "-//W3C//DTD SVG 20010904//EN"
 "http://www.w3.org/TR/2001/REC-SVG-20010904/DTD/svg10.dtd">
<svg version="1.0" xmlns="http://www.w3.org/2000/svg"
 width="514.000000pt" height="360.000000pt" viewBox="0 0 514.000000 360.000000"
 preserveAspectRatio="xMidYMid meet">

<g transform="translate(0.000000,360.000000) scale(0.100000,-0.100000)"
fill="#000000" stroke="none">
<path d="M4149 2119 c-9 -18 -8 -20 9 -15 11 4 23 2 27 -4 3 -5 13 -10 22 -10
13 0 13 3 3 15 -10 12 -10 15 1 16 16 0 -19 17 -38 18 -7 1 -17 -8 -24 -20z"/>
<path d="M3985 2054 c-19 -42 -35 -78 -35 -79 0 -1 -7 -19 -15 -39 -8 -20 -15
-39 -14 -42 0 -3 -8 -12 -18 -20 -17 -14 -16 -14 4 -4 13 6 26 23 30 38 14 59
54 132 82 153 27 20 29 24 14 34 -9 7 -13 17 -9 23 4 7 5 12 1 12 -3 0 -21
-34 -40 -76z"/>
<path d="M4360 2105 c-18 -10 -20 -14 -8 -15 23 0 48 11 48 21 0 12 -11 11
-40 -6z"/>
<path d="M4258 2083 c12 -2 32 -2 45 0 12 2 2 4 -23 4 -25 0 -35 -2 -22 -4z"/>
<path d="M3397 2053 c-4 -3 -7 -11 -7 -17 0 -6 5 -5 12 2 6 6 9 14 7 17 -3 3
-9 2 -12 -2z"/>
<path d="M3253 2028 c-25 -33 -24 -41 3 -18 16 14 31 26 33 28 2 1 -3 2 -11 2
-9 0 -20 -6 -25 -12z"/>
<path d="M3916 2001 c-20 -21 -27 -37 -24 -57 l3 -29 18 32 c19 35 38 83 34
83 -2 0 -16 -13 -31 -29z"/>
<path d="M3475 2000 c-9 -14 -7 -16 25 -24 17 -5 21 -4 11 2 -7 5 -17 15 -21
22 -6 9 -9 9 -15 0z"/>
<path d="M3670 2005 c0 -3 16 -12 37 -20 20 -8 55 -33 79 -55 51 -47 71 -54
29 -10 -48 50 -145 107 -145 85z"/>
<path d="M3637 1973 c-11 -10 3 -23 25 -23 28 0 148 -78 148 -96 0 -7 -10 -18
-21 -25 -15 -8 -19 -8 -15 0 4 6 0 11 -8 11 -22 0 -20 -17 4 -30 16 -9 24 -6
42 15 12 14 29 25 37 26 14 0 14 1 1 6 -8 3 -43 26 -78 50 -66 47 -126 76
-135 66z"/>
<path d="M3191 1920 c-17 -27 -49 -61 -71 -76 -45 -30 -48 -34 -21 -27 28 7
75 54 105 106 37 63 26 60 -13 -3z"/>
<path d="M3593 1958 c-13 -6 -23 -20 -23 -30 0 -18 -1 -18 -16 -4 -20 20 -105
21 -159 1 -22 -8 -55 -14 -73 -15 -38 0 -78 -23 -94 -54 -10 -20 -9 -20 14 2
48 44 247 81 304 57 10 -4 27 -10 37 -11 15 -3 16 -1 7 17 -10 17 -8 21 9 26
12 3 21 9 21 14 0 11 1 11 -27 -3z"/>
<path d="M3620 1869 c7 -11 14 -18 17 -15 8 8 -5 36 -17 36 -7 0 -7 -6 0 -21z"/>
<path d="M3720 1870 c0 -5 5 -10 10 -10 6 0 10 5 10 10 0 6 -4 10 -10 10 -5 0
-10 -4 -10 -10z"/>
<path d="M2547 1802 c1 -3 -4 -14 -14 -24 -14 -16 -14 -18 -1 -18 18 0 33 30
20 40 -5 4 -7 5 -5 2z"/>
<path d="M1306 1713 c-6 -14 -5 -15 5 -6 7 7 10 15 7 18 -3 3 -9 -2 -12 -12z"/>
<path d="M1238 1675 c-23 -72 -26 -85 -22 -85 8 0 35 75 31 90 -2 11 -4 10 -9
-5z"/>
<path d="M2367 1623 c-3 -5 11 -30 29 -57 39 -55 44 -46 12 19 -23 43 -32 53
-41 38z"/>
<path d="M2931 1591 c-6 -22 -24 -53 -40 -70 -42 -45 -10 -38 40 9 23 21 46
37 51 34 4 -3 0 11 -9 30 -10 20 -21 36 -24 36 -3 0 -11 -18 -18 -39z"/>
<path d="M906 1603 c-6 -14 -5 -15 5 -6 7 7 10 15 7 18 -3 3 -9 -2 -12 -12z"/>
<path d="M573 1563 c-15 -5 -18 -33 -4 -33 5 0 19 9 32 20 22 18 23 19 4 19
-11 0 -26 -3 -32 -6z"/>
<path d="M1200 1555 c0 -8 2 -15 4 -15 2 0 6 7 10 15 3 8 1 15 -4 15 -6 0 -10
-7 -10 -15z"/>
<path d="M1186 1514 c-4 -9 -4 -19 -1 -22 2 -3 7 3 11 12 4 9 4 19 1 22 -2 3
-7 -3 -11 -12z"/>
<path d="M2732 1375 c-18 -13 -33 -26 -34 -30 0 -17 11 -13 46 14 44 35 35 48
-12 16z"/>
<path d="M2875 1390 c-3 -5 -2 -10 4 -10 5 0 13 5 16 10 3 6 2 10 -4 10 -5 0
-13 -4 -16 -10z"/>
</g>
</svg>
